<svg id="Layer_1" data-name="Layer 1" xmlns="http://www.w3.org/2000/svg" viewBox="0 0 419.7 368.9"><defs><style>.cls-1{fill:#785700;}.cls-2{fill:#002e0f;}.cls-3{fill:#fff;}</style></defs><polygon class="cls-1" points="314.77 0 104.92 0 0 184.45 104.92 368.9 314.77 368.9 419.7 184.45 314.77 0"/><polygon class="cls-2" points="303.45 14.35 114.95 14.35 20.7 183.13 114.95 351.9 303.45 351.9 397.7 183.13 303.45 14.35"/><path class="cls-3" d="M172.2,147.85a121.34,121.34,0,0,1,25.91-5.2h22.18a122.26,122.26,0,0,1,26.5,5.37,60.92,60.92,0,0,0-37.09,56.13,61.46,61.46,0,0,0-.5-7.84,60.25,60.25,0,0,0-3.12-12.91A61.14,61.14,0,0,0,172.2,147.85Z"/><path class="cls-3" d="M91.32,183.4a61,61,0,0,1,77.13-37v2.67a122.41,122.41,0,0,0-40.75,24.09,124.15,124.15,0,0,0-10.18,10.21Z"/><path class="cls-3" d="M250,149.1v-2.33a61,61,0,0,1,78.13,36.63h-27.2a124.15,124.15,0,0,0-10.18-10.21A122.41,122.41,0,0,0,250,149.1Z"/><path class="cls-3" d="M168.45,264.9v-3a60.94,60.94,0,0,0,41.25-57.72A61,61,0,0,0,250,261.53v3.37Z"/><circle class="cls-3" cx="209.2" cy="121.65" r="12.5"/></svg>